<?xml version="1.0" encoding="UTF-8"?>
<!DOCTYPE svg  PUBLIC '-//W3C//DTD SVG 1.1//EN'  'http://www.w3.org/Graphics/SVG/1.1/DTD/svg11.dtd'>
<svg enable-background="new 0 0 344.581 344.581" version="1.1" viewBox="0 0 344.58 344.58" xml:space="preserve" xmlns="http://www.w3.org/2000/svg">
<path d="m341.18 258.01-58.024-40.053c-4.527-3.123-8.151-1.179-8.151 4.321v25.207h-47.913c-4.122 0-10.803-3.876-12.768-7.41l-37.73-67.794 37.731-67.986c2.029-3.649 8.83-7.81 12.766-7.81h47.913v25.82c0 5.5 3.624 7.445 8.151 4.322l58.024-40.054c4.528-3.123 4.548-8.233 0.02-11.356l-58.044-40.053c-4.527-3.123-8.151-1.178-8.151 4.322v25h-47.913c-15.531 0-33.042 10.429-40.739 24.27l-28.082 50.6-24.996-44.916c-7.595-13.656-25.105-23.955-40.731-23.955h-76.539c-8.837 0-16 7.163-16 16s7.163 16 16 16h76.539c4.094 0 10.774 3.929 12.768 7.512l34.674 62.305-34.676 62.482c-2.041 3.671-8.722 7.701-12.765 7.701h-76.54c-8.837 0-16 7.163-16 16s7.163 16 16 16h76.539c15.564 0 33.075-10.382 40.738-24.16l25.027-45.096 28.05 50.402c7.563 13.599 25.073 23.854 40.732 23.854h47.914v25.613c0 5.5 3.624 7.445 8.151 4.322l58.044-40.054c4.528-3.123 4.508-8.233-0.019-11.356z"/>
</svg>
