<?xml version="1.0" encoding="UTF-8"?>
<!DOCTYPE svg  PUBLIC '-//W3C//DTD SVG 1.1//EN'  'http://www.w3.org/Graphics/SVG/1.1/DTD/svg11.dtd'>
<svg enable-background="new 0 0 512 512" version="1.1" viewBox="0 0 512 512" xml:space="preserve" xmlns="http://www.w3.org/2000/svg">
    <path d="m131.6 252.9v80.6c0 4.1 3.4 7.5 7.5 7.5h25.1c4.1 15.6 18.2 27.1 35 27.1s31-11.5 35-27.1h96.7c4.1 15.6 18.2 27.1 35 27.1s31-11.5 35-27.1h18.6c4.1 0 7.5-3.4 7.5-7.5v-70.7c0-1.6-0.5-3.1-1.4-4.3l-26-36.7c-1.4-2-3.7-3.2-6.1-3.2h-54.2v-23.6c0-4.1-3.4-7.5-7.5-7.5h-138.2c-5.2-24.9-27.3-43.7-53.7-43.7-30.3 0-54.9 24.6-54.9 54.9 0 27.4 20.3 50.2 46.6 54.2zm67.6 100.2c-11.7 0-21.2-9.5-21.2-21.2s9.5-21.2 21.2-21.2 21.2 9.5 21.2 21.2-9.6 21.2-21.2 21.2zm166.7 0c-11.7 0-21.2-9.5-21.2-21.2s9.5-21.2 21.2-21.2 21.2 9.5 21.2 21.2-9.5 21.2-21.2 21.2zm46.1-87.8v1.2h-40.8v-32.8h18.4l22.4 31.6zm-55.8-31.6v40.3c0 4.1 3.4 7.5 7.5 7.5h48.3v44.5h-10.4c-2.8-17.2-17.8-30.3-35.7-30.3-10.5 0-20 4.5-26.6 11.7v-73.7h16.9zm-31.9 92.4h-89.4c-2.8-17.2-17.8-30.3-35.7-30.3s-32.9 13.1-35.7 30.3h-16.9v-72.9c25.9-3.2 46.2-24.4 48-50.6h129.7v123.5zm-184.4-167.2c22 0 39.9 17.9 39.9 39.9s-17.9 39.9-39.9 39.9-39.9-17.9-39.9-39.9 17.9-39.9 39.9-39.9z"/>
    <path d="m129.9 215.8c1.4 1.4 3.3 2.2 5.3 2.2s3.9-0.8 5.3-2.2l23.5-23.5c2.9-2.9 2.9-7.7 0-10.6s-7.7-2.9-10.6 0l-18.2 18.2-8.8-8.8c-2.9-2.9-7.7-2.9-10.6 0s-2.9 7.7 0 10.6l14.1 14.1z"/>
</svg>
