<?xml version="1.0" encoding="UTF-8"?>
<!DOCTYPE svg  PUBLIC '-//W3C//DTD SVG 1.1//EN'  'http://www.w3.org/Graphics/SVG/1.1/DTD/svg11.dtd'>
<svg enable-background="new 0 0 201.629 201.629" version="1.1" viewBox="0 0 201.63 201.63" xml:space="preserve" xmlns="http://www.w3.org/2000/svg">
	<path d="m139.32 201.63c-1.457 0-2.925-0.14-4.387-0.426-0.04-6e-3 -0.08-0.012-0.12-0.019-2.116-0.364-52.265-9.341-89.971-47.047-30.396-30.395-40.649-69.411-43.673-85.014-0.564-1.856-0.888-3.791-0.962-5.757-0.023-0.219-0.029-0.438-0.018-0.656-0.054-6.129 2.288-11.87 6.615-16.197l12.818-12.818c0.75-0.75 1.768-1.172 2.828-1.172s2.078 0.422 2.828 1.172l41.479 41.48c1.563 1.562 1.563 4.095 0 5.656l-12.816 12.818c-0.327 0.327-0.656 0.637-0.992 0.935-5.987 5.316-7.148 14.626-2.694 21.65 4.279 6.747 9.12 12.838 14.387 18.105 6.239 6.238 13.642 11.89 22.001 16.795 6.837 4.012 15.627 2.726 21.379-3.127l0.139-0.14 12.818-12.817c1.563-1.563 4.094-1.563 5.656 0l41.479 41.479c1.563 1.562 1.563 4.095 0 5.656l-12.817 12.818c-4.292 4.293-10.036 6.626-15.977 6.626zm-3.345-8.364c0.11 0.014 0.22 0.031 0.329 0.054 4.857 1.008 9.843-0.478 13.337-3.971l9.988-9.989-35.822-35.822-10.104 10.104c-8.302 8.448-21.105 10.265-31.108 4.396-8.946-5.25-16.889-11.319-23.608-18.039-5.682-5.682-10.893-12.234-15.486-19.478-6.531-10.301-4.75-24.024 4.145-31.923 0.226-0.198 0.438-0.4 0.646-0.608l9.984-9.984-35.825-35.825-9.99 9.989c-2.832 2.833-4.348 6.609-4.27 10.637 3e-3 0.044 5e-3 0.087 6e-3 0.131 0.04 1.376 0.266 2.725 0.672 4.008 0.046 0.147 0.084 0.298 0.113 0.45 2.831 14.729 12.544 52.113 41.517 81.087 34.782 34.782 82.052 44.144 85.476 44.783zm61.468-82.321c-2.209 0-4-1.791-4-4 0-54.557-44.386-98.944-98.944-98.944-2.209 0-4-1.791-4-4s1.791-4 4-4c58.97 0 106.94 47.975 106.94 106.94 0 2.209-1.791 4-4 4zm-24.82 0c-2.209 0-4-1.791-4-4 0-41.226-33.539-74.765-74.764-74.765-2.209 0-4-1.791-4-4s1.791-4 4-4c45.636 0 82.764 37.128 82.764 82.765 0 2.209-1.791 4-4 4zm-24.758 0c-2.209 0-4-1.791-4-4 0-27.573-22.433-50.006-50.006-50.006-2.209 0-4-1.791-4-4s1.791-4 4-4c31.984 0 58.006 26.021 58.006 58.006 0 2.209-1.791 4-4 4z"/>
</svg>
