<?xml version="1.0" encoding="UTF-8"?>
<svg enable-background="new 0 0 512 512" version="1.1" viewBox="0 0 512 512" xml:space="preserve" xmlns="http://www.w3.org/2000/svg">
	<path d="m256 238.43c65.734 0 119.21-53.48 119.21-119.21 1e-3 -65.736-53.48-119.21-119.21-119.21-65.736 0-119.21 53.478-119.21 119.21 0 65.734 53.48 119.21 119.21 119.21zm0-199.72c44.394 0 80.511 36.118 80.511 80.511s-36.117 80.511-80.511 80.511c-44.395 0-80.511-36.118-80.511-80.511s36.117-80.511 80.511-80.511z"/>
	<path d="m256 253.69c-97.918 0-177.58 79.662-177.58 177.58v61.375c0 10.687 8.664 19.351 19.351 19.351h316.46c10.687 0 19.352-8.664 19.352-19.351v-61.375c1e-3 -97.918-79.661-177.58-177.58-177.58zm-138.88 219.6v-42.024c0-76.578 62.3-138.88 138.88-138.88s138.88 62.3 138.88 138.88v42.024h-277.76z"/>
</svg>
